<?xml version="1.0" standalone="no"?>
<!DOCTYPE svg PUBLIC "-//W3C//DTD SVG 20010904//EN"
 "http://www.w3.org/TR/2001/REC-SVG-20010904/DTD/svg10.dtd">
<svg version="1.0" xmlns="http://www.w3.org/2000/svg"
 width="1184.000000pt" height="284.000000pt" viewBox="0 0 1184.000000 284.000000"
 preserveAspectRatio="xMidYMid meet">

<g transform="translate(0.000000,284.000000) scale(0.100000,-0.100000)"
fill="#000000" stroke="none">
<path d="M0 1420 l0 -1420 5920 0 5920 0 0 1420 0 1420 -5920 0 -5920 0 0
-1420z m578 1138 c113 -53 161 -202 102 -318 -42 -82 -119 -129 -211 -130 -97
0 -171 45 -214 131 -43 84 -31 185 31 257 76 89 183 111 292 60z m1682 -2
c112 -55 158 -201 100 -316 -24 -46 -76 -95 -122 -114 -46 -20 -138 -21 -181
-3 -87 37 -147 128 -147 222 0 66 16 108 60 159 75 85 185 105 290 52z m-838
-13 c72 -39 111 -100 116 -181 10 -146 -87 -251 -231 -252 -98 0 -172 46 -213
135 -40 84 -28 174 32 244 73 85 198 107 296 54z m-417 -412 c133 -59 195
-230 131 -366 -81 -174 -319 -210 -448 -67 -51 57 -70 105 -71 182 -1 131 80
237 208 271 43 11 131 2 180 -20z m832 4 c48 -20 109 -78 135 -130 30 -58 35
-151 12 -217 -65 -184 -312 -239 -452 -100 -53 53 -76 114 -76 197 0 128 73
223 204 266 35 12 132 3 177 -16z m5033 -160 c0 -63 2 -115 4 -115 2 0 25 12
50 26 89 50 197 18 237 -70 16 -35 19 -67 19 -213 l0 -173 -90 0 -90 0 0 134
c0 128 -1 136 -24 163 -21 24 -27 26 -52 18 -45 -16 -54 -46 -54 -187 l0 -128
-90 0 -90 0 0 330 0 330 90 0 90 0 0 -115z m4460 -6 l0 -120 36 27 c51 39 133
44 188 12 70 -41 81 -76 84 -280 l4 -178 -90 0 -90 0 -4 141 c-3 134 -4 142
-27 160 -31 25 -47 24 -76 -6 -24 -23 -25 -29 -25 -160 l0 -135 -90 0 -90 0 0
330 0 330 90 0 90 0 0 -121z m-7727 71 c46 -14 123 -85 132 -123 4 -15 5 -30
3 -32 -3 -3 -42 -13 -87 -22 l-82 -17 -24 31 c-28 36 -63 47 -99 33 -18 -7
-26 -17 -26 -34 0 -23 8 -28 68 -45 37 -11 85 -25 108 -31 49 -12 100 -45 128
-83 16 -22 21 -43 21 -92 0 -54 -4 -69 -30 -106 -18 -26 -50 -53 -80 -68 -44
-23 -62 -26 -155 -26 -94 1 -110 3 -156 27 -56 29 -109 85 -119 126 -3 13 -4
26 -2 29 3 2 44 11 92 20 l86 16 30 -37 c25 -29 37 -36 65 -36 46 0 74 16 74
41 0 23 -19 32 -130 59 -140 35 -200 89 -200 182 0 102 58 170 167 198 46 11
164 6 216 -10z m4180 0 c116 -17 197 -72 243 -166 23 -47 27 -68 27 -138 -1
-68 -5 -91 -26 -132 -32 -62 -77 -105 -147 -140 -53 -27 -62 -28 -242 -32
l-188 -5 0 305 c0 168 3 308 7 311 10 11 249 8 326 -3z m-1277 -74 c2 -68 10
-75 76 -69 l38 4 0 -75 0 -76 -55 0 -56 0 3 -82 3 -83 51 -3 50 -3 13 -60 c6
-33 9 -64 6 -69 -18 -30 -154 -39 -213 -15 -77 33 -102 88 -102 228 0 87 -2
92 -37 88 -10 -1 -13 19 -13 74 0 73 1 75 25 75 24 0 25 2 25 65 l0 66 93 -3
92 -3 1 -59z m3394 -1 l0 -65 60 0 60 0 0 -75 0 -75 -60 0 -60 0 0 -59 c0 -93
10 -109 67 -113 l48 -3 12 -55 c7 -30 11 -60 9 -66 -6 -16 -78 -34 -137 -34
-66 0 -124 30 -153 80 -16 27 -22 59 -26 145 l-5 110 -27 -3 -28 -3 0 75 0 75
30 -4 30 -4 0 70 0 69 90 0 90 0 0 -65z m-5801 -75 c51 -24 52 -24 49 -7 -2 9
20 12 87 12 l90 0 3 -232 2 -233 -89 0 c-70 0 -90 3 -95 15 -5 13 -11 12 -46
-6 -34 -18 -53 -21 -106 -16 -80 6 -132 37 -171 104 -25 42 -28 58 -28 133 0
69 4 93 22 126 25 47 94 111 127 117 53 10 114 5 155 -13z m705 0 c21 -10 45
-28 52 -39 13 -19 15 -18 45 10 76 71 211 60 270 -22 23 -33 24 -42 27 -221
l3 -188 -90 0 -91 0 0 145 c0 141 -1 145 -24 160 -30 20 -70 11 -84 -18 -6
-12 -13 -80 -14 -152 l-3 -130 -92 -3 -92 -3 -3 148 -3 147 -27 15 c-25 14
-29 14 -55 -5 l-28 -21 -3 -142 -3 -141 -94 0 -95 0 0 229 c0 174 3 230 13
233 6 3 47 6 90 7 72 2 79 1 84 -18 5 -20 6 -20 32 -2 50 36 128 40 185 11z
m774 -4 c27 -14 31 -14 36 0 5 12 22 14 93 12 l88 -3 0 -230 0 -230 -88 -3
c-69 -2 -88 0 -93 12 -5 12 -13 11 -51 -6 -100 -44 -214 -6 -270 89 -25 42
-28 58 -28 133 0 131 41 198 144 237 43 16 127 11 169 -11z m3806 4 c35 -17
40 -18 50 -4 9 12 29 14 96 12 l85 -3 0 -230 0 -230 -92 -3 c-78 -2 -93 0 -93
13 0 19 -2 19 -45 -6 -29 -17 -47 -21 -100 -17 -85 5 -139 41 -178 118 -26 50
-28 62 -25 137 4 69 9 89 34 130 55 90 180 129 268 83z m1014 6 c92 -33 144
-106 156 -218 l6 -58 -160 0 c-167 0 -178 -3 -143 -42 22 -25 94 -25 116 0 16
18 21 18 97 3 l79 -15 -21 -38 c-56 -99 -215 -138 -334 -82 -52 25 -111 88
-124 133 -28 101 4 221 73 274 70 53 176 71 255 43z m567 -14 c22 -11 54 -35
71 -54 30 -32 61 -94 52 -103 -2 -3 -40 -12 -83 -21 -56 -12 -80 -13 -83 -5
-11 32 -41 55 -75 55 -45 0 -64 -16 -77 -65 -27 -98 90 -164 138 -78 15 27 21
29 52 24 91 -17 130 -28 130 -37 0 -6 -12 -32 -26 -59 -45 -81 -131 -124 -237
-117 -171 11 -272 155 -226 321 18 66 98 139 173 158 51 13 148 4 191 -19z
m-4909 -19 c0 -44 8 -49 28 -17 21 30 72 54 118 54 l33 0 3 -95 3 -95 -37 0
c-47 0 -117 -33 -132 -63 -7 -12 -13 -65 -14 -117 l-3 -95 -92 -3 -93 -3 0
229 c0 126 3 232 7 236 4 4 46 5 93 4 l85 -3 1 -32z m2244 -111 c4 -127 7
-145 24 -158 29 -20 54 -17 81 11 24 23 25 29 25 159 l0 134 88 -1 87 -2 3
-232 2 -233 -90 0 c-83 0 -90 1 -90 20 0 25 -4 25 -41 -2 -43 -32 -154 -33
-196 -2 -61 46 -68 71 -71 271 l-4 182 89 -2 88 -2 5 -143z m570 112 c0 -39 9
-43 36 -13 25 29 75 49 120 49 l37 0 -7 -61 c-3 -34 -6 -76 -6 -94 0 -32 -1
-33 -52 -39 -101 -14 -128 -54 -128 -191 l0 -85 -90 0 -90 0 0 228 c0 126 3
231 6 234 3 3 43 6 90 6 l84 0 0 -34z m-7406 -215 c101 -60 149 -148 149 -267
-1 -92 -33 -162 -104 -226 -60 -54 -121 -76 -208 -76 -259 0 -395 309 -225
509 65 75 131 102 245 98 78 -3 92 -6 143 -38z m3341 -779 c51 -135 50 -130
20 -130 -14 0 -28 7 -31 15 -4 9 -19 15 -40 15 -22 0 -37 -6 -40 -15 -4 -9
-19 -15 -36 -15 -25 0 -29 3 -23 18 6 15 59 159 70 190 3 7 15 12 26 10 17 -2
29 -21 54 -88z m755 -19 l0 -109 -60 -1 c-70 -1 -80 10 -80 87 0 59 24 88 65
78 23 -6 25 -4 25 24 0 25 4 30 25 30 l25 0 0 -109z m800 90 c0 -11 -6 -22
-12 -25 -10 -5 -10 -7 0 -12 14 -7 16 -44 2 -44 -5 0 -10 -21 -10 -47 0 -57
-10 -76 -36 -71 -15 3 -19 13 -20 53 -1 28 -5 58 -9 68 -4 10 -3 28 3 40 5 12
13 30 16 40 8 25 66 24 66 -2z m229 10 c25 -16 -6 -43 -39 -36 -18 4 -31 1
-39 -9 -11 -13 -9 -17 14 -26 14 -5 31 -10 37 -10 22 0 48 -33 48 -61 0 -56
-88 -89 -148 -55 -21 11 -22 14 -7 26 10 8 33 13 55 11 40 -3 63 15 39 30 -8
5 -24 9 -36 9 -13 0 -32 9 -43 20 -45 45 -6 110 64 110 23 0 47 -4 55 -9z
m101 -22 c0 -29 2 -30 29 -24 46 10 61 -14 61 -96 0 -67 -1 -69 -25 -69 -24 0
-25 3 -25 61 0 52 -2 60 -17 57 -14 -2 -19 -15 -21 -61 -3 -53 -5 -57 -27 -57
l-25 0 0 110 0 110 25 0 c21 0 25 -5 25 -31z m835 6 c0 -17 -6 -20 -47 -19
-39 0 -48 -3 -48 -17 0 -19 20 -29 56 -29 17 0 24 -6 24 -20 0 -17 -7 -20 -40
-20 -33 0 -40 -3 -40 -20 0 -17 7 -20 44 -20 31 0 46 -5 50 -16 11 -28 -3 -34
-75 -34 l-69 0 0 110 0 111 73 -3 c64 -3 72 -5 72 -23z m1021 8 c-2 -9 -12
-18 -24 -20 -16 -2 -22 2 -22 17 0 14 7 20 24 20 17 0 23 -5 22 -17z m-2566
-18 c0 -16 6 -25 15 -25 8 0 15 -9 15 -20 0 -11 -7 -20 -15 -20 -11 0 -15 -11
-15 -35 0 -22 6 -38 15 -41 25 -10 18 -44 -8 -44 -35 0 -54 28 -60 90 -8 86 1
120 29 120 19 0 24 -5 24 -25z m1810 0 c0 -16 6 -25 15 -25 8 0 15 -9 15 -20
0 -11 -7 -20 -15 -20 -10 0 -15 -10 -15 -34 0 -21 6 -36 15 -40 8 -3 15 -15
15 -26 0 -14 -7 -20 -24 -20 -31 0 -49 24 -52 68 -1 20 -5 45 -9 55 -4 9 -4
25 1 35 7 16 10 24 13 45 0 4 10 7 21 7 15 0 20 -7 20 -25z m-2722 -28 c7 -5
12 -32 12 -71 0 -73 -13 -91 -60 -84 -27 4 -30 2 -30 -24 0 -23 -4 -28 -25
-28 l-25 0 0 109 0 110 58 -3 c31 -1 63 -5 70 -9z m168 1 c12 -12 -17 -38 -42
-38 -23 0 -24 -3 -24 -60 0 -57 -1 -60 -25 -60 -25 0 -25 1 -25 83 l0 83 54 0
c30 -1 58 -4 62 -8z m117 1 c31 -17 37 -28 37 -76 0 -52 -26 -83 -70 -83 -44
0 -70 31 -70 83 0 47 6 58 35 75 26 15 41 15 68 1z m297 -51 c0 -32 4 -58 10
-58 6 0 13 0 18 0 4 0 9 26 12 57 4 51 8 58 28 61 21 3 22 1 22 -82 l0 -85
-55 0 c-74 0 -85 13 -85 100 0 67 1 69 25 67 24 -2 25 -6 25 -60z m231 51 c16
-8 18 -13 8 -25 -6 -8 -22 -14 -34 -14 -13 0 -26 -7 -29 -16 -11 -28 3 -54 28
-54 32 0 56 -28 35 -41 -43 -27 -103 2 -113 55 -14 75 45 128 105 95z m340 -7
c17 -15 22 -29 22 -65 0 -58 -23 -87 -68 -87 -44 0 -68 29 -69 86 -1 37 4 50
23 65 29 24 62 24 92 1z m715 6 c9 -15 -17 -38 -42 -38 -23 0 -24 -3 -24 -60
0 -57 -1 -60 -25 -60 -25 0 -25 1 -25 84 l0 83 55 0 c31 0 58 -4 61 -9z m139
-13 c14 -13 25 -36 25 -50 0 -23 -3 -25 -50 -25 -55 0 -65 -14 -23 -33 21 -9
27 -9 31 1 3 10 7 10 18 1 39 -32 -59 -55 -101 -23 -31 23 -28 109 4 135 32
26 67 24 96 -6z m172 3 c13 -13 23 -33 23 -50 0 -27 -2 -28 -51 -28 -36 0 -49
-4 -46 -12 2 -7 20 -13 40 -13 19 0 39 -3 43 -7 13 -14 -18 -38 -50 -38 -64 0
-97 51 -76 116 19 56 75 72 117 32z m443 2 c6 -8 10 -45 10 -82 0 -66 -1 -68
-25 -68 -24 0 -25 3 -25 60 0 53 -2 60 -20 60 -18 0 -20 -7 -20 -60 0 -57 -1
-60 -25 -60 -25 0 -25 1 -25 78 0 43 2 81 6 84 12 12 115 2 124 -12z m287 -7
c7 -9 13 -29 13 -45 0 -27 -2 -28 -45 -28 -38 0 -45 -3 -45 -20 0 -22 29 -27
48 -8 8 8 15 8 27 -2 16 -13 15 -15 -1 -27 -27 -20 -81 -16 -104 7 -29 29 -28
102 3 130 26 25 84 21 104 -7z m169 16 c9 -16 -16 -39 -42 -39 -23 0 -24 -3
-24 -60 0 -57 -1 -60 -25 -60 -25 0 -25 1 -25 84 l0 83 55 1 c30 0 58 -4 61
-9z m155 -6 c17 -17 22 -95 7 -123 -11 -19 -22 -25 -48 -25 -30 -1 -35 -4 -38
-28 -3 -20 -9 -27 -25 -27 -21 0 -22 5 -25 100 -2 55 -1 104 2 109 8 12 113 8
127 -6z m165 6 c9 -16 -16 -39 -42 -39 -23 0 -24 -3 -24 -60 0 -57 -1 -60 -25
-60 -25 0 -25 1 -25 83 l0 83 55 1 c30 1 58 -3 61 -8z m225 0 c31 -16 6 -40
-33 -32 -24 5 -30 3 -26 -8 2 -8 15 -16 29 -17 35 -5 49 -21 49 -53 0 -33 -23
-49 -72 -49 -43 0 -78 22 -57 36 8 5 26 9 41 9 38 0 40 19 3 23 -33 4 -45 16
-45 49 0 42 65 67 111 42z m163 -10 c17 -14 26 -30 26 -50 0 -28 -2 -29 -45
-29 -38 0 -45 -3 -45 -20 0 -14 7 -20 24 -20 13 0 26 6 29 13 3 9 7 9 20 -2
16 -13 16 -15 0 -27 -24 -18 -74 -17 -100 1 -24 17 -35 69 -21 105 19 52 67
65 112 29z m167 10 c30 -16 6 -40 -32 -32 -38 7 -39 -14 -1 -23 37 -9 52 -23
52 -47 0 -33 -29 -57 -70 -57 -44 0 -81 22 -59 36 8 5 26 9 41 9 38 0 40 19 3
23 -33 4 -45 16 -45 49 0 42 65 67 111 42z m-475 -76 c-1 -73 -2 -78 -23 -81
-22 -3 -23 -1 -23 77 0 78 1 81 23 81 23 0 24 -3 23 -77z"/>
<path d="M7640 1740 l0 -150 56 0 c68 0 120 23 145 64 29 48 34 91 14 142 -23
60 -79 94 -158 94 l-57 0 0 -150z"/>
<path d="M4023 1750 c-31 -13 -56 -66 -49 -103 22 -112 167 -98 166 15 -1 46
-12 68 -47 86 -25 14 -40 14 -70 2z"/>
<path d="M5469 1731 c-38 -39 -39 -87 -3 -130 45 -54 124 -36 142 32 11 43 4
71 -24 102 -32 35 -77 34 -115 -4z"/>
<path d="M9289 1731 c-60 -60 -23 -160 59 -161 77 0 113 106 56 164 -36 35
-77 34 -115 -3z"/>
<path d="M10262 1754 c-42 -29 -28 -44 42 -44 36 0 67 4 71 9 9 15 -36 51 -65
51 -14 0 -36 -7 -48 -16z"/>
<path d="M4737 840 c-4 -15 0 -20 14 -20 21 0 22 1 13 24 -8 22 -21 20 -27 -4z"/>
<path d="M5472 823 c2 -26 8 -38 18 -38 10 0 16 12 18 38 3 32 0 37 -18 37
-18 0 -21 -5 -18 -37z"/>
<path d="M4992 823 c3 -42 22 -54 38 -23 15 28 4 60 -21 60 -17 0 -20 -6 -17
-37z"/>
<path d="M5302 823 c2 -26 8 -38 18 -38 10 0 16 12 18 38 3 32 0 37 -18 37
-18 0 -21 -5 -18 -37z"/>
<path d="M6157 854 c-12 -12 -8 -51 7 -63 18 -15 39 9 34 41 -3 22 -27 35 -41
22z"/>
<path d="M7007 864 c-14 -14 -6 -24 19 -24 16 0 24 5 22 13 -5 14 -31 21 -41
11z"/>
<path d="M7177 855 c-5 -11 0 -15 19 -15 16 0 24 5 22 13 -7 18 -35 20 -41 2z"/>
<path d="M7907 863 c-26 -7 -15 -28 14 -28 15 0 25 7 27 18 3 17 -6 19 -41 10z"/>
<path d="M8232 858 c-16 -16 -15 -65 2 -71 31 -12 50 49 23 72 -10 8 -17 7
-25 -1z"/>
<path d="M8797 864 c-13 -13 -7 -24 14 -24 11 0 19 5 17 12 -5 14 -22 21 -31
12z"/>
</g>
</svg>
